<svg width="12" height="12" viewBox="0 0 12 12" fill="none" xmlns="http://www.w3.org/2000/svg">
<path d="M10.433 3.11926H3.1242C2.44696 3.11926 1.89331 2.56807 1.89331 1.88836C1.89331 1.21112 2.44449 0.657467 3.1242 0.657467H10.4354C10.6183 0.657467 10.7642 0.509166 10.7642 0.328733C10.7642 0.145829 10.6159 0 10.4354 0H3.1242C2.08363 0 1.23584 0.847786 1.23584 1.88836V10.1116C1.23584 11.1522 2.08363 12 3.1242 12H10.4354C10.6183 12 10.7642 11.8517 10.7642 11.6713V3.44799C10.7617 3.26756 10.6159 3.11926 10.433 3.11926ZM10.1042 11.3425H3.1242C2.44696 11.3425 1.89331 10.7913 1.89331 10.1116V3.32194C2.22451 3.60618 2.65458 3.7792 3.1242 3.7792H10.1042V11.3425Z" fill="white"/>
<path d="M3.2279 1.58936C3.045 1.58936 2.89917 1.73766 2.89917 1.91809C2.89917 2.09852 3.04747 2.24682 3.2279 2.24682H9.40216C9.58506 2.24682 9.73089 2.09852 9.73089 1.91809C9.73089 1.73766 9.58259 1.58936 9.40216 1.58936H3.2279Z" fill="white"/>
<path d="M4.38464 9.90403C4.42172 9.91639 4.45879 9.9238 4.49587 9.9238C4.63181 9.9238 4.75787 9.83977 4.80483 9.7063L5.20524 8.58663H6.74757C6.75993 8.58663 6.77476 8.58663 6.78711 8.58415L7.18753 9.7063C7.23449 9.83977 7.36301 9.9238 7.49649 9.9238C7.53356 9.9238 7.57064 9.91639 7.60771 9.90403C7.77826 9.84224 7.86724 9.65439 7.80545 9.48385L6.30761 5.28446C6.30514 5.27458 6.30019 5.26469 6.29525 5.2548L6.28042 5.22514C6.27795 5.2202 6.27301 5.21526 6.27053 5.20784C6.26806 5.20537 6.26559 5.20043 6.26312 5.19795C6.26065 5.19301 6.2557 5.18807 6.25076 5.18312C6.24829 5.18065 6.24582 5.17571 6.24087 5.17324C6.2384 5.16829 6.23346 5.16582 6.22851 5.16088C6.22357 5.15594 6.2211 5.15346 6.21616 5.14852C6.21368 5.14605 6.20874 5.14358 6.20627 5.13863C6.20133 5.13369 6.19638 5.13122 6.19144 5.12628C6.18897 5.1238 6.18402 5.12133 6.18155 5.11886C6.17661 5.11639 6.17167 5.11145 6.16672 5.10897L6.15189 5.10156C6.15189 5.10156 6.14201 5.09662 6.13706 5.09414C6.12718 5.0892 6.11729 5.08426 6.1074 5.08179H6.10493L6.07527 5.07437C6.07033 5.07437 6.06786 5.0719 6.06291 5.0719C6.0555 5.06943 6.05055 5.06943 6.04314 5.06696C6.0382 5.06696 6.03325 5.06695 6.02831 5.06448C6.02337 5.06448 6.01595 5.06201 6.01101 5.06201C6.00606 5.06201 6.00112 5.06201 5.99618 5.06201H5.97888C5.97393 5.06201 5.96652 5.06201 5.96157 5.06448C5.95663 5.06448 5.95169 5.06448 5.94674 5.06696C5.93933 5.06696 5.93439 5.06943 5.92697 5.0719C5.92203 5.0719 5.91955 5.07437 5.91461 5.07437C5.90472 5.07684 5.89484 5.07931 5.88742 5.08179H5.88495C5.87506 5.08426 5.86518 5.0892 5.85529 5.09414L5.82563 5.10897C5.82069 5.11145 5.81574 5.11639 5.80833 5.11886C5.80586 5.12133 5.80091 5.1238 5.79844 5.12628C5.7935 5.13122 5.78856 5.13369 5.78361 5.13863C5.78114 5.14111 5.7762 5.14358 5.77373 5.14852L5.76137 5.16088C5.76137 5.16088 5.75395 5.16829 5.74901 5.17324C5.74654 5.17571 5.74407 5.18065 5.73912 5.18312C5.73418 5.18807 5.73171 5.19301 5.72676 5.19795C5.72429 5.20043 5.72182 5.20537 5.71935 5.20784C5.71688 5.21278 5.71193 5.21773 5.70946 5.22267L5.69463 5.25233C5.68969 5.26222 5.68475 5.2721 5.68227 5.28199L4.17949 9.48137C4.12512 9.65439 4.2141 9.84224 4.38464 9.90403ZM5.99865 6.372L6.55478 7.92916H5.44005L5.99865 6.372Z" fill="white"/>
</svg>
