<svg width="11" height="12" viewBox="0 0 11 12" fill="none" xmlns="http://www.w3.org/2000/svg">
<path d="M10.8 11.4C10.8 11.7313 10.5313 12 10.2 12C9.86861 12 9.59998 11.7313 9.59998 11.4V10.2C9.59998 9.20587 8.79409 8.39998 7.79998 8.39998H2.99999C2.00588 8.39998 1.2 9.20587 1.2 10.2V11.4C1.2 11.7313 0.931369 12 0.599999 12C0.268629 12 0 11.7313 0 11.4V10.2C0 8.54313 1.34314 7.19998 2.99999 7.19998H7.79998C9.45683 7.19998 10.8 8.54313 10.8 10.2V11.4ZM5.39999 5.99999C3.74314 5.99999 2.39999 4.65684 2.39999 2.99999C2.39999 1.34314 3.74314 0 5.39999 0C7.05684 0 8.39998 1.34314 8.39998 2.99999C8.39998 4.65684 7.05684 5.99999 5.39999 5.99999ZM5.39999 4.79999C6.3941 4.79999 7.19998 3.9941 7.19998 2.99999C7.19998 2.00588 6.3941 1.2 5.39999 1.2C4.40588 1.2 3.59999 2.00588 3.59999 2.99999C3.59999 3.9941 4.40588 4.79999 5.39999 4.79999Z" fill="#606060"/>
</svg>
