<svg width="134" height="63" viewBox="0 0 134 63" fill="none" xmlns="http://www.w3.org/2000/svg">
<path d="M0.967454 56.6503V58.5331H1.82942C2.14589 58.5331 2.38358 58.439 2.54249 58.2513C2.70072 58.0637 2.78018 57.8347 2.78018 57.565C2.78018 57.2485 2.6847 57.0168 2.49441 56.8699C2.30413 56.723 2.04975 56.6503 1.73327 56.6503H0.968121H0.967454ZM0.967454 59.351V61.2866H1.8648C2.03506 61.2866 2.19463 61.2659 2.34419 61.2251C2.49375 61.1844 2.62394 61.1237 2.73544 61.0449C2.84694 60.9661 2.93441 60.8646 2.99917 60.7418C3.06394 60.6182 3.09598 60.4747 3.09598 60.3104C3.09598 60.1282 3.05793 59.9779 2.98115 59.8571C2.90503 59.7369 2.80421 59.6388 2.67802 59.562C2.55183 59.4859 2.40829 59.4311 2.24671 59.3991C2.0858 59.367 1.91955 59.351 1.74996 59.351H0.966786H0.967454ZM0 62.1572V55.779H1.6892C2.00034 55.779 2.28143 55.8097 2.53381 55.8718C2.78619 55.9332 2.99984 56.03 3.17611 56.1615C3.35237 56.2937 3.48857 56.464 3.58539 56.6716C3.6822 56.8799 3.73027 57.1337 3.73027 57.4328C3.73027 57.597 3.71425 57.7579 3.6822 57.9162C3.65015 58.0744 3.5974 58.22 3.52396 58.3515C3.45052 58.4837 3.35371 58.5992 3.23353 58.6993C3.11334 58.7988 2.96512 58.8756 2.78886 58.9277C2.94175 58.9571 3.09265 59.0071 3.2422 59.0773C3.39176 59.1474 3.5253 59.2428 3.64214 59.363C3.75965 59.4832 3.85446 59.6314 3.9279 59.8077C4.00135 59.9833 4.03807 60.1916 4.03807 60.4326C4.03807 60.7377 3.97931 60.9988 3.86247 61.2158C3.74496 61.4328 3.58939 61.6117 3.39644 61.7526C3.20281 61.8935 2.97981 61.9963 2.7281 62.0604C2.47572 62.1252 2.21466 62.1572 1.94492 62.1572H0.00066767H0ZM7.63614 58.9724C7.63614 58.5324 7.7216 58.1145 7.89119 57.7192C8.06145 57.3233 8.29446 56.9761 8.59091 56.6763C8.88735 56.3772 9.23187 56.1408 9.62446 55.9679C10.0177 55.795 10.4397 55.7082 10.8917 55.7082C11.337 55.7082 11.7583 55.795 12.1543 55.9679C12.5502 56.1408 12.896 56.3772 13.1925 56.6763C13.4889 56.9754 13.7233 57.3226 13.8962 57.7192C14.0691 58.1151 14.1559 58.5331 14.1559 58.9724C14.1559 59.4244 14.0691 59.8464 13.8962 60.2397C13.7233 60.6323 13.4889 60.9768 13.1925 61.2732C12.896 61.569 12.5502 61.8027 12.1543 61.9729C11.7583 62.1432 11.3377 62.228 10.8917 62.228C10.4397 62.228 10.0177 62.1432 9.62446 61.9729C9.23187 61.8027 8.88735 61.5697 8.59091 61.2732C8.29513 60.9768 8.06145 60.6323 7.89119 60.2397C7.7216 59.8464 7.63614 59.4244 7.63614 58.9724ZM8.59491 58.9811C8.59491 59.3036 8.655 59.6074 8.77518 59.8918C8.89536 60.1762 9.06095 60.4239 9.27193 60.6349C9.48291 60.8466 9.72929 61.0135 10.011 61.1363C10.2928 61.2599 10.5919 61.3213 10.9084 61.3213C11.2249 61.3213 11.5226 61.2599 11.8011 61.1363C12.0795 61.0135 12.3232 60.8466 12.5308 60.6349C12.7391 60.4239 12.9034 60.1762 13.0236 59.8918C13.1437 59.6074 13.2038 59.3009 13.2038 58.9724C13.2038 58.6499 13.1437 58.3468 13.0236 58.0617C12.9034 57.7773 12.7378 57.5296 12.5268 57.3186C12.3152 57.1076 12.0708 56.9407 11.7924 56.8172C11.514 56.6937 11.2162 56.6322 10.8997 56.6322C10.5832 56.6322 10.2841 56.6937 10.0024 56.8172C9.7206 56.9407 9.47624 57.1076 9.26793 57.3186C9.05961 57.5303 8.89536 57.7793 8.77518 58.0664C8.655 58.3535 8.59491 58.6586 8.59491 58.9811ZM17.6826 58.9724C17.6826 58.5324 17.768 58.1145 17.9376 57.7192C18.1079 57.3233 18.3409 56.9761 18.6373 56.6763C18.9338 56.3772 19.2783 56.1408 19.6709 55.9679C20.0641 55.795 20.4861 55.7082 20.9381 55.7082C21.3835 55.7082 21.8048 55.795 22.2007 55.9679C22.5966 56.1408 22.9425 56.3772 23.2389 56.6763C23.5354 56.9754 23.7697 57.3226 23.9426 57.7192C24.1156 58.1151 24.2024 58.5331 24.2024 58.9724C24.2024 59.4244 24.1156 59.8464 23.9426 60.2397C23.7697 60.6323 23.5354 60.9768 23.2389 61.2732C22.9425 61.569 22.5966 61.8027 22.2007 61.9729C21.8048 62.1432 21.3841 62.228 20.9381 62.228C20.4861 62.228 20.0641 62.1432 19.6709 61.9729C19.2783 61.8027 18.9338 61.5697 18.6373 61.2732C18.3416 60.9768 18.1079 60.6323 17.9376 60.2397C17.768 59.8464 17.6826 59.4244 17.6826 58.9724ZM18.6413 58.9811C18.6413 59.3036 18.7014 59.6074 18.8216 59.8918C18.9418 60.1762 19.1074 60.4239 19.3184 60.6349C19.5293 60.8466 19.7757 61.0135 20.0575 61.1363C20.3392 61.2599 20.6383 61.3213 20.9548 61.3213C21.2713 61.3213 21.5691 61.2599 21.8475 61.1363C22.1259 61.0135 22.3696 60.8466 22.5773 60.6349C22.7856 60.4239 22.9498 60.1762 23.07 59.8918C23.1902 59.6074 23.2503 59.3009 23.2503 58.9724C23.2503 58.6499 23.1902 58.3468 23.07 58.0617C22.9498 57.7773 22.7842 57.5296 22.5732 57.3186C22.3616 57.1076 22.1172 56.9407 21.8388 56.8172C21.5604 56.6937 21.2626 56.6322 20.9461 56.6322C20.6297 56.6322 20.3305 56.6937 20.0488 56.8172C19.767 56.9407 19.5227 57.1076 19.3144 57.3186C19.106 57.5303 18.9418 57.7793 18.8216 58.0664C18.7014 58.3535 18.6413 58.6586 18.6413 58.9811ZM31.9607 62.1572C31.7557 61.8935 31.5588 61.6411 31.3711 61.4007C31.1835 61.1604 30.9986 60.92 30.817 60.6797C30.6347 60.4393 30.4518 60.1963 30.2675 59.9499C30.0825 59.7035 29.8876 59.4485 29.6826 59.1847C29.6065 59.2669 29.533 59.3416 29.4629 59.4091C29.3928 59.4765 29.316 59.5453 29.2346 59.6161C29.2346 60.0674 29.2359 60.4914 29.2386 60.8873C29.2413 61.2832 29.2433 61.7072 29.2433 62.1585H28.179V55.7803H29.2433V58.1645C29.2433 58.2173 29.2386 58.2687 29.2299 58.3188C29.2212 58.3689 29.2166 58.4203 29.2166 58.4723C29.2459 58.4316 29.2753 58.3949 29.3047 58.3622C29.3341 58.3301 29.3635 58.2901 29.3928 58.2433C29.8095 57.8501 30.2107 57.4415 30.598 57.0162C30.9852 56.5908 31.3865 56.1789 31.8031 55.7803H33.0256C32.5856 56.2377 32.1503 56.6983 31.719 57.1617C31.2877 57.6251 30.8524 58.0851 30.4124 58.5424C30.6587 58.8589 30.8951 59.166 31.1208 59.4618C31.3464 59.7583 31.5694 60.0527 31.7891 60.3458C32.0088 60.6389 32.2304 60.9354 32.4534 61.2345C32.6764 61.5336 32.9081 61.8414 33.1485 62.1585H31.9607V62.1572ZM44.5503 60.0547V62.1572H43.5828V60.0547C43.5421 59.99 43.4613 59.8497 43.3411 59.6328C43.2209 59.4158 43.0801 59.1594 42.9192 58.8629C42.7576 58.5665 42.5846 58.2513 42.3997 57.9168C42.2148 57.5823 42.0418 57.2672 41.8809 56.9714C41.72 56.675 41.5785 56.4186 41.4583 56.2016C41.3381 55.9846 41.2573 55.8437 41.2166 55.779H42.3076C42.3603 55.8671 42.4545 56.036 42.5893 56.2851C42.7242 56.5341 42.8737 56.8159 43.038 57.1297C43.2022 57.4435 43.3692 57.7599 43.5394 58.0798C43.7097 58.3989 43.8532 58.6733 43.9707 58.9023L44.0675 59.1928C44.0909 59.146 44.1116 59.0973 44.129 59.0479C44.147 58.9978 44.1644 58.9497 44.1817 58.903C44.3052 58.6746 44.4488 58.4002 44.613 58.0804C44.7773 57.7606 44.9402 57.4441 45.1011 57.1303C45.262 56.8165 45.4089 56.5348 45.5411 56.2857C45.6726 56.0367 45.7654 55.8678 45.8182 55.7796H46.9005L44.5516 60.0554L44.5503 60.0547ZM49.7668 58.9724C49.7668 58.5324 49.8522 58.1145 50.0218 57.7192C50.1921 57.3233 50.4251 56.9761 50.7215 56.6763C51.018 56.3772 51.3625 56.1408 51.7551 55.9679C52.1483 55.795 52.5703 55.7082 53.0223 55.7082C53.4677 55.7082 53.889 55.795 54.2849 55.9679C54.6808 56.1408 55.0267 56.3772 55.3231 56.6763C55.6196 56.9754 55.8539 57.3226 56.0268 57.7192C56.1998 58.1151 56.2866 58.5331 56.2866 58.9724C56.2866 59.4244 56.1998 59.8464 56.0268 60.2397C55.8539 60.6323 55.6196 60.9768 55.3231 61.2732C55.0267 61.569 54.6808 61.8027 54.2849 61.9729C53.889 62.1432 53.4683 62.228 53.0223 62.228C52.5703 62.228 52.1483 62.1432 51.7551 61.9729C51.3625 61.8027 51.018 61.5697 50.7215 61.2732C50.4258 60.9768 50.1921 60.6323 50.0218 60.2397C49.8522 59.8464 49.7668 59.4244 49.7668 58.9724ZM50.7255 58.9811C50.7255 59.3036 50.7856 59.6074 50.9058 59.8918C51.026 60.1762 51.1916 60.4239 51.4026 60.6349C51.6136 60.8466 51.8599 61.0135 52.1417 61.1363C52.4234 61.2599 52.7225 61.3213 53.039 61.3213C53.3555 61.3213 53.6533 61.2599 53.9317 61.1363C54.2101 61.0135 54.4538 60.8466 54.6615 60.6349C54.8698 60.4239 55.034 60.1762 55.1542 59.8918C55.2744 59.6074 55.3345 59.3009 55.3345 58.9724C55.3345 58.6499 55.2744 58.3468 55.1542 58.0617C55.034 57.7773 54.8684 57.5296 54.6575 57.3186C54.4458 57.1076 54.2014 56.9407 53.923 56.8172C53.6446 56.6937 53.3468 56.6322 53.0303 56.6322C52.7139 56.6322 52.4148 56.6937 52.133 56.8172C51.8512 56.9407 51.6069 57.1076 51.3986 57.3186C51.1902 57.5303 51.026 57.7793 50.9058 58.0664C50.7856 58.3535 50.7255 58.6586 50.7255 58.9811ZM62.6194 62.2273C62.2789 62.2273 61.9624 62.1712 61.6693 62.0604C61.3762 61.9489 61.1198 61.792 60.8995 61.5897C60.6798 61.3874 60.5062 61.1437 60.3801 60.8593C60.2539 60.5748 60.1911 60.2564 60.1911 59.9045V55.7783H61.1586V59.8778C61.1586 60.0828 61.1953 60.2724 61.2687 60.4453C61.3415 60.6182 61.4443 60.7711 61.5765 60.9027C61.708 61.0349 61.8623 61.137 62.0379 61.2105C62.2141 61.2839 62.4078 61.3206 62.6188 61.3206C62.8244 61.3206 63.016 61.2839 63.195 61.2105C63.3739 61.137 63.5295 61.0349 63.661 60.9027C63.7925 60.7711 63.8967 60.6182 63.9735 60.4453C64.0496 60.2724 64.0876 60.0834 64.0876 59.8778V55.7783H65.0551V59.9045C65.0551 60.2564 64.9923 60.5748 64.8661 60.8593C64.7399 61.1437 64.567 61.3874 64.3467 61.5897C64.127 61.792 63.8686 61.9489 63.5728 62.0604C63.2764 62.1719 62.9586 62.2273 62.6181 62.2273H62.6194ZM69.411 62.1572V55.779H71.1529C71.4874 55.779 71.7939 55.823 72.0723 55.9112C72.3507 55.9993 72.5911 56.1295 72.7934 56.3024C72.9957 56.4753 73.1526 56.6863 73.2641 56.9354C73.3756 57.1844 73.431 57.4708 73.431 57.7933C73.431 57.9689 73.4136 58.1438 73.3783 58.3168C73.3429 58.4897 73.2861 58.6573 73.2067 58.8182C73.1279 58.9791 73.0264 59.1293 72.9035 59.2669C72.78 59.4044 72.6305 59.5206 72.4549 59.6147C72.6892 59.9839 72.9443 60.3932 73.22 60.8419C73.4958 61.2906 73.7742 61.7292 74.0559 62.1572H72.9035C72.786 61.9756 72.6645 61.7847 72.5383 61.5857C72.4121 61.3861 72.2859 61.1884 72.1604 60.9915C72.0342 60.7952 71.9114 60.6015 71.7905 60.4113C71.6703 60.221 71.5575 60.0434 71.452 59.8791H71.2758H70.3784V62.1579H69.411V62.1572ZM70.3784 58.9724H71.2497C71.4841 58.9724 71.681 58.933 71.8393 58.8536C71.9975 58.7748 72.1224 58.6766 72.2132 58.5591C72.304 58.4416 72.3687 58.3154 72.4068 58.1806C72.4448 58.0457 72.4635 57.9228 72.4635 57.8113C72.4635 57.6998 72.4448 57.5783 72.4068 57.4461C72.3687 57.3139 72.3026 57.1911 72.2085 57.0762C72.1143 56.9621 71.9902 56.8666 71.8346 56.7905C71.679 56.7144 71.4867 56.6763 71.2584 56.6763H70.3784V58.9724ZM86.6802 56.1308L86.3371 56.914C86.0967 56.8259 85.8577 56.7558 85.62 56.703C85.3823 56.6503 85.1553 56.6236 84.9383 56.6236C84.5684 56.6236 84.274 56.6997 84.0543 56.8526C83.8346 57.0048 83.7245 57.1984 83.7245 57.4334C83.7245 57.6324 83.8033 57.7927 83.9622 57.9128C84.1204 58.033 84.3167 58.1412 84.5517 58.238C84.7861 58.3348 85.0418 58.4316 85.3169 58.5284C85.5926 58.6252 85.8477 58.7501 86.082 58.9023C86.317 59.0552 86.5133 59.2468 86.6716 59.4785C86.8298 59.7102 86.9093 60.008 86.9093 60.3712C86.9093 60.653 86.8578 60.9067 86.755 61.1323C86.6529 61.358 86.5 61.553 86.2977 61.7172C86.0954 61.8815 85.843 62.0077 85.5412 62.0958C85.2387 62.1839 84.8855 62.2273 84.4809 62.2273C84.2232 62.2273 83.9895 62.21 83.7812 62.1746C83.5729 62.1392 83.3853 62.0938 83.2184 62.0384C83.0515 61.9823 82.9046 61.9229 82.7784 61.8581C82.6522 61.7933 82.5454 61.7352 82.4572 61.6825L82.8799 60.8466C83.1142 60.9814 83.3753 61.0896 83.663 61.1717C83.9501 61.2539 84.2112 61.2952 84.4462 61.2952C84.5637 61.2952 84.7086 61.2806 84.8815 61.2512C85.0545 61.2218 85.22 61.1704 85.379 61.097C85.5372 61.0235 85.6734 60.9254 85.7882 60.8018C85.9024 60.6783 85.9598 60.5234 85.9598 60.3358C85.9598 60.1656 85.9144 60.0207 85.8236 59.9005C85.7328 59.7803 85.6126 59.6748 85.4631 59.584C85.3135 59.4932 85.1439 59.4111 84.953 59.3376C84.7627 59.2642 84.5671 59.1881 84.3681 59.1093C84.1685 59.0298 83.9735 58.9464 83.7832 58.8583C83.5929 58.7701 83.4227 58.6633 83.2731 58.5371C83.1236 58.4109 83.0034 58.264 82.9126 58.0971C82.8218 57.9302 82.7764 57.7292 82.7764 57.4942C82.7764 57.2772 82.8204 57.0629 82.9086 56.8519C82.9967 56.6403 83.1282 56.4526 83.3045 56.2891C83.4808 56.1248 83.6991 55.9926 83.9602 55.8931C84.2212 55.7937 84.5243 55.7436 84.8709 55.7436C85.0818 55.7436 85.2888 55.7609 85.4911 55.7963C85.6934 55.8317 85.877 55.8711 86.0406 55.9152C86.2049 55.9592 86.3444 56.0013 86.4586 56.0427C86.5727 56.0841 86.6475 56.1128 86.6829 56.1308H86.6802ZM90.8585 62.1572V55.779H95.0461V56.6503H91.8266V58.5157H94.6949V59.4044H91.8266V61.2692H95.1697V62.1579H90.8592L90.8585 62.1572ZM99.1456 62.1572V55.779H100.888C101.222 55.779 101.529 55.823 101.807 55.9112C102.085 55.9993 102.326 56.1295 102.528 56.3024C102.73 56.4753 102.887 56.6863 102.999 56.9354C103.11 57.1844 103.166 57.4708 103.166 57.7933C103.166 57.9689 103.148 58.1438 103.113 58.3168C103.078 58.4897 103.021 58.6573 102.941 58.8182C102.863 58.9791 102.761 59.1293 102.638 59.2669C102.515 59.4044 102.365 59.5206 102.19 59.6147C102.424 59.9839 102.679 60.3932 102.955 60.8419C103.23 61.2906 103.509 61.7292 103.791 62.1572H102.638C102.521 61.9756 102.399 61.7847 102.273 61.5857C102.147 61.3861 102.021 61.1884 101.895 60.9915C101.769 60.7952 101.646 60.6015 101.525 60.4113C101.405 60.221 101.292 60.0434 101.187 59.8791H101.01H100.113V62.1579H99.1456V62.1572ZM100.113 58.9724H100.984C101.219 58.9724 101.416 58.933 101.574 58.8536C101.732 58.7748 101.857 58.6766 101.948 58.5591C102.039 58.4416 102.103 58.3154 102.141 58.1806C102.18 58.0457 102.198 57.9228 102.198 57.8113C102.198 57.6998 102.18 57.5783 102.141 57.4461C102.103 57.3139 102.037 57.1911 101.943 57.0762C101.849 56.9621 101.725 56.8666 101.569 56.7905C101.414 56.7144 101.221 56.6763 100.993 56.6763H100.113V58.9724ZM107.45 55.779C107.491 55.8784 107.558 56.0414 107.652 56.267C107.747 56.4927 107.853 56.7498 107.974 57.0369C108.094 57.324 108.22 57.6291 108.351 57.9516C108.484 58.274 108.609 58.5792 108.725 58.8663C108.843 59.1534 108.948 59.4104 109.042 59.6361C109.136 59.8618 109.203 60.0247 109.244 60.1242C109.25 60.1355 109.265 60.1769 109.288 60.247C109.312 60.3171 109.33 60.3792 109.341 60.432L109.429 60.1242C109.47 60.0247 109.538 59.8618 109.631 59.6361C109.726 59.4104 109.831 59.1534 109.948 58.8663C110.065 58.5792 110.19 58.274 110.322 57.9516C110.454 57.6291 110.58 57.324 110.7 57.0369C110.821 56.7498 110.927 56.4927 111.021 56.267C111.116 56.0414 111.182 55.8784 111.224 55.779H112.174C112.138 55.8611 112.076 56.0093 111.985 56.2236C111.894 56.4379 111.784 56.697 111.655 57.0021C111.526 57.3073 111.384 57.6418 111.228 58.005C111.073 58.3689 110.915 58.7381 110.753 59.1133C110.592 59.4885 110.434 59.8584 110.278 60.2216C110.123 60.5848 109.982 60.9194 109.856 61.2245C109.73 61.5296 109.621 61.7887 109.531 62.003C109.44 62.2173 109.377 62.3649 109.342 62.4476L106.5 55.779H107.45ZM115.833 55.779H116.793V62.1572H115.833V55.779ZM125.951 61.6999C125.88 61.7526 125.782 61.81 125.655 61.8714C125.529 61.9329 125.381 61.9903 125.211 62.043C125.041 62.0958 124.852 62.1398 124.643 62.1746C124.435 62.21 124.214 62.2273 123.979 62.2273C123.48 62.2273 123.033 62.1412 122.637 61.9676C122.241 61.7947 121.905 61.5617 121.629 61.2679C121.354 60.9748 121.143 60.6343 120.996 60.247C120.85 59.8604 120.777 59.4498 120.777 59.0158C120.777 58.5351 120.863 58.0918 121.037 57.6872C121.209 57.2826 121.446 56.9334 121.744 56.6403C122.043 56.3471 122.394 56.1181 122.796 55.9539C123.198 55.7896 123.624 55.7075 124.076 55.7075C124.246 55.7075 124.419 55.7195 124.595 55.7429C124.771 55.7663 124.937 55.7983 125.092 55.8397C125.248 55.8804 125.385 55.9292 125.505 55.9846C125.625 56.04 125.718 56.0974 125.782 56.1562C125.736 56.2263 125.699 56.2851 125.672 56.3318C125.645 56.3785 125.618 56.4273 125.589 56.4767C125.559 56.5268 125.527 56.5835 125.492 56.6483C125.457 56.713 125.41 56.7978 125.351 56.9033C125.275 56.8506 125.185 56.8065 125.083 56.7711C124.98 56.7357 124.873 56.7064 124.761 56.683C124.65 56.6596 124.537 56.6416 124.423 56.6302C124.309 56.6182 124.205 56.6129 124.11 56.6129C123.77 56.6129 123.455 56.6756 123.164 56.8018C122.874 56.928 122.624 57.0976 122.413 57.3119C122.201 57.5263 122.035 57.774 121.915 58.0557C121.795 58.3375 121.735 58.6306 121.735 58.935C121.735 59.2342 121.792 59.5219 121.906 59.797C122.021 60.0727 122.179 60.3191 122.381 60.5361C122.584 60.7531 122.827 60.926 123.112 61.0556C123.396 61.1844 123.709 61.2492 124.048 61.2492C124.23 61.2492 124.406 61.2312 124.577 61.1964C124.747 61.161 124.9 61.1203 125.038 61.0729C125.176 61.0262 125.29 60.9788 125.381 60.932C125.472 60.8853 125.526 60.8499 125.544 60.8265L125.949 61.6979L125.951 61.6999ZM129.689 62.1572V55.779H133.876V56.6503H130.657V58.5157H133.525V59.4044H130.657V61.2692H134V62.1579H129.69L129.689 62.1572Z" fill="#4D4D4D"/>
<path d="M10.415 44.1359C8.85664 44.1359 7.43651 43.8301 6.15458 43.2185C4.87199 42.6069 3.77768 41.803 2.87031 40.8069C1.96295 39.8107 1.25789 38.6717 0.754467 37.3891C0.251044 36.1071 0 34.7851 0 33.4244C0 32.0437 0.261059 30.7124 0.783844 29.4304C1.30663 28.1485 2.03639 27.0188 2.97313 26.0427C3.90987 25.0665 5.01954 24.2874 6.30213 23.7052C7.58406 23.123 8.98483 22.8325 10.5038 22.8325C12.0621 22.8325 13.4823 23.1383 14.7642 23.7499C16.0468 24.3615 17.1411 25.17 18.0484 26.1762C18.9558 27.1824 19.6562 28.3261 20.1489 29.608C20.6423 30.89 20.8887 32.1919 20.8887 33.5139C20.8887 34.8946 20.6277 36.226 20.1049 37.5079C19.5821 38.7898 18.8577 39.9195 17.9303 40.8957C17.0035 41.8718 15.8986 42.6563 14.6166 43.2479C13.3347 43.8394 11.9339 44.1352 10.415 44.1352V44.1359ZM4.94142 33.4845C4.94142 34.2931 5.0596 35.0776 5.29662 35.8367C5.53365 36.5959 5.88351 37.2715 6.34687 37.8631C6.81023 38.4547 7.3871 38.928 8.07747 39.2832C8.76784 39.6384 9.55702 39.816 10.4444 39.816C11.3711 39.816 12.1803 39.6284 12.8707 39.2539C13.561 38.8793 14.1332 38.3906 14.5866 37.789C15.0406 37.1874 15.3804 36.5071 15.6074 35.7473C15.8345 34.9881 15.948 34.2136 15.948 33.4244C15.948 32.6159 15.8298 31.832 15.5928 31.0722C15.3557 30.3124 15.0012 29.6421 14.5278 29.0599C14.0544 28.4777 13.4776 28.0143 12.7972 27.6691C12.1169 27.3239 11.3324 27.1517 10.445 27.1517C9.5183 27.1517 8.71443 27.3339 8.0334 27.6992C7.35305 28.0644 6.78085 28.5424 6.31749 29.134C5.85413 29.7255 5.50894 30.4012 5.28194 31.1604C5.05493 31.9195 4.94142 32.694 4.94142 33.4832V33.4845ZM23.4339 46.2958C23.8285 46.434 24.1984 46.5328 24.5435 46.5916C24.8887 46.651 25.1992 46.6804 25.4756 46.6804C26.0478 46.6804 26.4918 46.4834 26.8069 46.0888C27.1227 45.6942 27.4085 44.9845 27.6649 43.9583L21.7473 28.4249H26.6293L30.2388 39.9048L33.3454 28.4249H37.7834L31.8659 46.4734C31.4519 47.7553 30.7121 48.7962 29.6465 49.5947C28.5816 50.3939 27.319 50.7932 25.8595 50.7932C25.4649 50.7932 25.0657 50.7585 24.661 50.6897C24.2571 50.6203 23.8478 50.5074 23.4332 50.3492V46.2958H23.4339ZM46.5419 44.254C45.24 44.254 44.0715 44.0424 43.036 43.6177C42.0004 43.1938 41.1224 42.6169 40.4027 41.8871C39.6829 41.1574 39.1355 40.3141 38.7602 39.3573C38.3857 38.4006 38.1981 37.3997 38.1981 36.3542C38.1981 35.2298 38.3857 34.1696 38.7602 33.1734C39.1348 32.1772 39.6776 31.3046 40.388 30.5548C41.0977 29.805 41.9711 29.2134 43.0066 28.7795C44.0422 28.3455 45.2206 28.1285 46.5426 28.1285C47.8639 28.1285 49.0377 28.3455 50.0632 28.7795C51.0887 29.2134 51.9567 29.8003 52.6671 30.5394C53.3775 31.2792 53.915 32.1325 54.2795 33.0986C54.6448 34.0654 54.827 35.0809 54.827 36.1459C54.827 36.4216 54.817 36.6933 54.7977 36.9597C54.7776 37.2261 54.7482 37.4578 54.7089 37.6548H43.2289C43.3077 38.7004 43.6876 39.4942 44.368 40.037C45.0483 40.5792 45.8228 40.8503 46.6908 40.8503C47.3812 40.8503 48.0468 40.6827 48.6878 40.3475C49.3288 40.0123 49.7581 39.5583 49.9751 38.9861L53.9991 40.1105C53.3875 41.3337 52.4408 42.3298 51.1582 43.099C49.8763 43.8681 48.3373 44.2527 46.5426 44.2527L46.5419 44.254ZM49.8262 34.7271C49.7274 33.7409 49.3728 32.9617 48.7613 32.3895C48.1497 31.8174 47.3905 31.5316 46.4832 31.5316C45.5564 31.5316 44.792 31.8227 44.1904 32.4042C43.5888 32.9858 43.239 33.7603 43.1401 34.7264H49.8269L49.8262 34.7271Z" fill="#FF9D00"/>
<path d="M84.2856 46.4815C82.4475 46.4815 81.0581 45.9087 80.1167 44.7629C79.1753 43.6172 78.7046 41.9327 78.7046 39.7087V28.2728H84.1501V38.5169C84.1501 39.6058 84.3658 40.4398 84.7964 41.0186C85.2277 41.5968 85.84 41.8866 86.6345 41.8866C87.3603 41.8866 88.064 41.6937 88.7443 41.3077C89.4247 40.9218 90.0263 40.2528 90.5484 39.3001V28.2728H95.9939V40.0145C95.9939 40.5586 96.0794 40.9392 96.249 41.1548C96.4192 41.3705 96.7197 41.5007 97.151 41.5461V46.141C96.6295 46.2545 96.1869 46.3279 95.8236 46.362C95.4604 46.3961 95.1319 46.4134 94.8368 46.4134C92.8852 46.4134 91.7736 45.6529 91.5011 44.1326L91.399 43.0437C90.5818 44.2235 89.5669 45.0914 88.3524 45.6476C87.1386 46.2038 85.7826 46.4815 84.285 46.4815H84.2856ZM107.259 46.4815C105.739 46.4815 104.241 46.2378 102.766 45.7497C101.291 45.2617 100.043 44.5526 99.0224 43.6225L100.963 40.2869C102.052 41.0353 103.113 41.6142 104.145 42.0221C105.177 42.4308 106.17 42.6351 107.123 42.6351C107.826 42.6351 108.37 42.5102 108.756 42.2605C109.142 42.0108 109.335 41.6482 109.335 41.1715C109.335 40.6948 109.092 40.3149 108.604 40.0312C108.115 39.7474 107.259 39.4469 106.034 39.1291C104.831 38.7886 103.816 38.4601 102.987 38.1423C102.159 37.8245 101.484 37.4726 100.962 37.0874C100.44 36.7015 100.066 36.2595 99.839 35.7601C99.612 35.2607 99.4985 34.6711 99.4985 33.9901C99.4985 33.0827 99.6801 32.2541 100.043 31.5057C100.407 30.7572 100.905 30.1216 101.541 29.5995C102.176 29.078 102.93 28.6694 103.804 28.3743C104.678 28.0792 105.625 27.9316 106.646 27.9316C107.985 27.9316 109.238 28.1132 110.407 28.4758C111.575 28.839 112.704 29.4967 113.793 30.4501L111.683 33.717C110.663 33.0139 109.755 32.5032 108.961 32.1854C108.167 31.8676 107.395 31.7086 106.647 31.7086C106.057 31.7086 105.558 31.8275 105.149 32.0659C104.74 32.3042 104.537 32.6841 104.537 33.2062C104.537 33.7056 104.758 34.0802 105.2 34.3293C105.643 34.579 106.466 34.8507 107.668 35.1458C108.939 35.4863 110.011 35.8262 110.884 36.1667C111.758 36.5072 112.467 36.8871 113.011 37.3071C113.556 37.727 113.953 38.2091 114.203 38.7532C114.452 39.2981 114.577 39.9444 114.577 40.6935C114.577 42.4628 113.92 43.8703 112.603 44.9138C111.287 45.9574 109.506 46.4795 107.259 46.4795L107.259 46.4815ZM116.993 48.8297C117.447 48.9886 117.872 49.1021 118.269 49.1702C118.666 49.2383 119.023 49.2724 119.341 49.2724C119.999 49.2724 120.509 49.0454 120.873 48.592C121.236 48.138 121.564 47.3214 121.859 46.1417L115.053 28.2735H120.668L124.821 41.4787L128.394 28.2735H133.499L126.692 49.0347C126.215 50.5096 125.365 51.7067 124.14 52.6254C122.914 53.5441 121.462 54.0035 119.783 54.0035C119.329 54.0035 118.87 53.9634 118.405 53.884C117.94 53.8045 117.469 53.6743 116.993 53.4927V48.8304V48.8297Z" fill="#4D4D4D"/>
<path d="M84.2856 46.4815C82.4475 46.4815 81.0581 45.9087 80.1167 44.7629C79.1753 43.6172 78.7046 41.9327 78.7046 39.7087V28.2728H84.1501V38.5169C84.1501 39.6058 84.3658 40.4398 84.7964 41.0186C85.2277 41.5968 85.84 41.8866 86.6345 41.8866C87.3603 41.8866 88.064 41.6937 88.7443 41.3077C89.4247 40.9218 90.0263 40.2528 90.5484 39.3001V28.2728H95.9939V40.0145C95.9939 40.5586 96.0794 40.9392 96.249 41.1548C96.4192 41.3705 96.7197 41.5007 97.151 41.5461V46.141C96.6295 46.2545 96.1869 46.3279 95.8236 46.362C95.4604 46.3961 95.1319 46.4134 94.8368 46.4134C92.8852 46.4134 91.7736 45.6529 91.5011 44.1326L91.399 43.0437C90.5818 44.2235 89.5669 45.0914 88.3524 45.6476C87.1386 46.2038 85.7826 46.4815 84.285 46.4815H84.2856ZM107.259 46.4815C105.739 46.4815 104.241 46.2378 102.766 45.7497C101.291 45.2617 100.043 44.5526 99.0224 43.6225L100.963 40.2869C102.052 41.0353 103.113 41.6142 104.145 42.0221C105.177 42.4308 106.17 42.6351 107.123 42.6351C107.826 42.6351 108.37 42.5102 108.756 42.2605C109.142 42.0108 109.335 41.6482 109.335 41.1715C109.335 40.6948 109.092 40.3149 108.604 40.0312C108.115 39.7474 107.259 39.4469 106.034 39.1291C104.831 38.7886 103.816 38.4601 102.987 38.1423C102.159 37.8245 101.484 37.4726 100.962 37.0874C100.44 36.7015 100.066 36.2595 99.839 35.7601C99.612 35.2607 99.4985 34.6711 99.4985 33.9901C99.4985 33.0827 99.6801 32.2541 100.043 31.5057C100.407 30.7572 100.905 30.1216 101.541 29.5995C102.176 29.078 102.93 28.6694 103.804 28.3743C104.678 28.0792 105.625 27.9316 106.646 27.9316C107.985 27.9316 109.238 28.1132 110.407 28.4758C111.575 28.839 112.704 29.4967 113.793 30.4501L111.683 33.717C110.663 33.0139 109.755 32.5032 108.961 32.1854C108.167 31.8676 107.395 31.7086 106.647 31.7086C106.057 31.7086 105.558 31.8275 105.149 32.0659C104.74 32.3042 104.537 32.6841 104.537 33.2062C104.537 33.7056 104.758 34.0802 105.2 34.3293C105.643 34.579 106.466 34.8507 107.668 35.1458C108.939 35.4863 110.011 35.8262 110.884 36.1667C111.758 36.5072 112.467 36.8871 113.011 37.3071C113.556 37.727 113.953 38.2091 114.203 38.7532C114.452 39.2981 114.577 39.9444 114.577 40.6935C114.577 42.4628 113.92 43.8703 112.603 44.9138C111.287 45.9574 109.506 46.4795 107.259 46.4795L107.259 46.4815ZM116.993 48.8297C117.447 48.9886 117.872 49.1021 118.269 49.1702C118.666 49.2383 119.023 49.2724 119.341 49.2724C119.999 49.2724 120.509 49.0454 120.873 48.592C121.236 48.138 121.564 47.3214 121.859 46.1417L115.053 28.2735H120.668L124.821 41.4787L128.394 28.2735H133.499L126.692 49.0347C126.215 50.5096 125.365 51.7067 124.14 52.6254C122.914 53.5441 121.462 54.0035 119.783 54.0035C119.329 54.0035 118.87 53.9634 118.405 53.884C117.94 53.8045 117.469 53.6743 116.993 53.4927V48.8304V48.8297Z" stroke="#4D4D4D" stroke-width="0.290181" stroke-miterlimit="22.9256"/>
<path d="M67.8851 46.5509C66.5238 46.5509 65.3326 46.2618 64.3118 45.683C63.2909 45.1041 62.485 44.2929 61.8955 43.2493V46.2104H57.165V10.9922H62.6106V31.2693C63.2001 30.2485 63.9886 29.4486 64.9761 28.8697C65.9629 28.2908 67.126 28.0017 68.4647 28.0017C69.5991 28.0017 70.6426 28.2454 71.5961 28.7335C72.5488 29.2216 73.3661 29.8852 74.0464 30.7245C74.7268 31.5644 75.2602 32.5566 75.6461 33.7023C76.0321 34.848 76.225 36.0679 76.225 37.3611C76.225 38.6544 76.0154 39.8629 75.5954 40.9859C75.1754 42.1089 74.5919 43.0844 73.8428 43.913C73.0936 44.7409 72.209 45.3879 71.1881 45.8532C70.1672 46.3186 69.0669 46.5509 67.8865 46.5509H67.8851ZM66.3535 41.956C66.9891 41.956 67.5673 41.8372 68.0895 41.5988C68.6116 41.3605 69.0596 41.0373 69.4335 40.6287C69.808 40.2201 70.1031 39.738 70.3188 39.1825C70.5345 38.6264 70.642 38.0195 70.642 37.3618C70.642 36.7269 70.5398 36.1199 70.3355 35.5411C70.1312 34.9622 69.8534 34.4574 69.5016 34.0261C69.1497 33.5948 68.7244 33.255 68.225 33.0053C67.7256 32.7556 67.1928 32.6307 66.6253 32.6307C65.7633 32.6307 64.9748 32.9258 64.2597 33.5154C63.5453 34.1056 62.9945 34.8427 62.6092 35.7274V39.4716C62.9724 40.2428 63.4999 40.8497 64.1916 41.2924C64.8833 41.735 65.6037 41.956 66.3528 41.956H66.3535Z" fill="#4D4D4D"/>
<path fill-rule="evenodd" clip-rule="evenodd" d="M48.2867 23.4633L81.4605 0L110.755 24.0354L81.4512 6.94661L49.7509 26.3022H24.7173L48.2867 23.4633Z" fill="#4D4D4D"/>
<path fill-rule="evenodd" clip-rule="evenodd" d="M116.385 26.3675H133.81L110.988 6.01826L84.7651 0.0112305L116.385 26.3675Z" fill="#FF9D00"/>
</svg>
