<svg width="12" height="12" viewBox="0 0 12 12" fill="none" xmlns="http://www.w3.org/2000/svg">
<path d="M2.90342 2.58838H2.05103C1.5609 2.58838 1.16358 2.98571 1.16358 3.47584V4.59118H10.1959V3.47584C10.1959 2.98571 9.79855 2.58838 9.30842 2.58838H8.45603V2.87982C8.45603 3.1739 8.21764 3.41229 7.92356 3.41229C7.62948 3.41229 7.39109 3.1739 7.39109 2.87982V2.58838H3.96837V2.87982C3.96837 3.1739 3.72997 3.41229 3.43589 3.41229C3.14182 3.41229 2.90342 3.1739 2.90342 2.87982V2.58838ZM3.96837 1.52344H7.39109V0.635988C7.39109 0.341911 7.62948 0.103516 7.92356 0.103516C8.21764 0.103516 8.45603 0.341911 8.45603 0.635988V1.52344H9.30842C10.3867 1.52344 11.2608 2.39756 11.2608 3.47584V10.0233C11.2608 11.1015 10.3867 11.9757 9.30842 11.9757H2.05103C0.972751 11.9757 0.0986328 11.1015 0.0986328 10.0233V3.47584C0.0986328 2.39756 0.972751 1.52344 2.05103 1.52344H2.90342V0.635988C2.90342 0.341911 3.14182 0.103516 3.43589 0.103516C3.72997 0.103516 3.96837 0.341911 3.96837 0.635988V1.52344ZM1.16358 5.65612V10.0233C1.16358 10.5134 1.5609 10.9107 2.05103 10.9107H9.30842C9.79855 10.9107 10.1959 10.5134 10.1959 10.0233V5.65612H1.16358Z" fill="#989898"/>
</svg>
