<svg width="17" height="16" viewBox="0 0 17 16" fill="none" xmlns="http://www.w3.org/2000/svg">
<path d="M16.08 3.03994C15.52 3.27994 14.88 3.43994 14.16 3.51994C14.8 3.11994 15.36 2.47994 15.6 1.67994C14.96 2.07994 14.24 2.31994 13.52 2.47994C12.96 1.83994 12.08 1.43994 11.12 1.43994C9.28 1.43994 7.84 2.87994 7.84 4.71994C7.84 4.95994 7.84 5.19994 7.92 5.43994C5.2 5.35994 2.8 4.07994 1.2 2.07994C0.88 2.55994 0.72 3.11994 0.72 3.75994C0.72 4.87994 1.28 5.91994 2.16 6.47994C1.68 6.47994 1.2 6.31994 0.72 6.07994C0.72 6.07994 0.72 6.07994 0.72 6.15994C0.72 7.75994 1.84 9.03994 3.36 9.35994C3.12 9.43994 2.8 9.43994 2.48 9.43994C2.24 9.43994 2.08 9.43994 1.84 9.35994C2.24 10.6399 3.44 11.5999 4.88 11.5999C3.76 12.4799 2.32 13.0399 0.8 13.0399C0.56 13.0399 0.24 13.0399 0 12.9599C1.44 13.9199 3.2 14.3999 5.04 14.3999C11.04 14.3999 14.4 9.35994 14.4 5.03994C14.4 4.87994 14.4 4.71994 14.4 4.63994C15.12 4.23994 15.6 3.67994 16.08 3.03994Z" fill="#010D00" fill-opacity="0.7"/>
</svg>
